<svg width="866" height="974" viewBox="0 0 866 974" fill="none" xmlns="http://www.w3.org/2000/svg">
  <g opacity="0.2">
    <path opacity="0.2" d="M549 0C403.396 0 263.756 57.8409 160.798 160.798C57.8409 263.756 0 403.396 0 549C0 694.604 57.8409 834.244 160.798 937.202C263.756 1040.16 403.396 1098 549 1098C694.604 1098 834.244 1040.16 937.202 937.202C1040.16 834.244 1098 694.604 1098 549C1098 403.396 1040.16 263.756 937.202 160.798C834.244 57.8409 694.604 0 549 0ZM549 804.124C515.497 804.124 482.321 797.525 451.368 784.703C420.415 771.882 392.291 753.09 368.6 729.4C344.91 705.709 326.118 677.585 313.297 646.632C300.475 615.679 293.876 582.503 293.876 549C293.972 481.399 320.893 416.6 368.727 368.832C416.562 321.065 481.399 294.235 549 294.235C582.486 294.188 615.654 300.743 646.604 313.525C677.555 326.307 705.683 345.065 729.378 368.727C753.073 392.389 771.871 420.49 784.696 451.423C797.522 482.356 804.124 515.514 804.124 549C804.124 616.663 777.245 681.555 729.4 729.4C681.555 777.245 616.663 804.124 549 804.124Z" fill="#EAEAEA"/>
    <path opacity="0.4" d="M549 0C403.396 0 263.756 57.8409 160.798 160.798C57.8409 263.756 0 403.396 0 549C0 694.604 57.8409 834.244 160.798 937.202C263.756 1040.16 403.396 1098 549 1098C694.604 1098 834.244 1040.16 937.202 937.202C1040.16 834.244 1098 694.604 1098 549C1098 403.396 1040.16 263.756 937.202 160.798C834.244 57.8409 694.604 0 549 0ZM549 804.124C515.497 804.124 482.321 797.525 451.368 784.703C420.415 771.882 392.291 753.09 368.6 729.4C344.91 705.709 326.118 677.585 313.297 646.632C300.475 615.679 293.876 582.503 293.876 549C293.972 481.399 320.893 416.6 368.727 368.832C416.562 321.065 481.399 294.235 549 294.235C582.486 294.188 615.654 300.743 646.604 313.525C677.555 326.307 705.683 345.065 729.378 368.727C753.073 392.389 771.871 420.49 784.696 451.423C797.522 482.356 804.124 515.514 804.124 549C804.124 616.663 777.245 681.555 729.4 729.4C681.555 777.245 616.663 804.124 549 804.124Z" fill="url(#paint0_linear)"/>
    <path opacity="0.2" d="M684.994 930.788C524.6 930.788 396.859 816.682 333.347 686.07C311.586 652.397 298.177 614.016 294.235 574.117C293.518 565.865 293.159 557.253 293.159 548.641C293.159 480.883 320.076 415.9 367.988 367.988C415.9 320.075 480.883 293.159 548.641 293.159C590.472 293.086 631.676 303.33 668.603 322.983C705.531 342.636 737.042 371.091 760.347 405.829C697.194 280.6 575.194 172.953 421.259 169.723C247.947 166.494 95.8058 246.512 31.5764 374.97C22.3056 390.911 16.5552 408.652 14.7118 427C13.6353 431.665 12.2 435.97 11.4824 440.994C6.9702 457.633 4.32251 474.722 3.58824 491.947C1.29846 510.88 0.100398 529.929 0 549C0 694.604 57.8409 834.244 160.798 937.201C263.756 1040.16 403.396 1098 549 1098C676.866 1098.05 800.733 1053.44 899.203 971.872C997.674 890.304 1064.56 776.905 1088.31 651.265C1047.41 810.941 882.706 930.788 684.994 930.788Z" fill="#EAEAEA"/>
    <g opacity="0.4">
      <path opacity="0.4" d="M684.994 930.788C524.6 930.788 396.859 816.682 333.347 686.07C311.586 652.397 298.177 614.016 294.235 574.117C293.518 565.865 293.159 557.253 293.159 548.641C293.159 480.883 320.076 415.9 367.988 367.988C415.9 320.075 480.883 293.159 548.641 293.159C590.472 293.086 631.676 303.33 668.603 322.983C705.531 342.636 737.042 371.091 760.347 405.829C697.194 280.6 575.194 172.953 421.259 169.723C247.947 166.494 95.8058 246.512 31.5764 374.97C22.3056 390.911 16.5552 408.652 14.7118 427C13.6353 431.665 12.2 435.97 11.4824 440.994C6.9702 457.633 4.32251 474.722 3.58824 491.947C1.29846 510.88 0.100398 529.929 0 549C0 694.604 57.8409 834.244 160.798 937.201C263.756 1040.16 403.396 1098 549 1098C676.866 1098.05 800.733 1053.44 899.203 971.872C997.674 890.304 1064.56 776.905 1088.31 651.265C1047.41 810.941 882.706 930.788 684.994 930.788Z" fill="url(#paint1_linear)"/>
    </g>
  </g>
  <defs>
    <linearGradient id="paint0_linear" x1="549.108" y1="0.143529" x2="549.108" y2="1098.14" gradientUnits="userSpaceOnUse">
      <stop offset="0.4" stop-color="white"/>
      <stop offset="1"/>
    </linearGradient>
    <linearGradient id="paint1_linear" x1="-276257" y1="87752.1" x2="-276257" y2="-152436" gradientUnits="userSpaceOnUse">
      <stop offset="0.4" stop-color="white"/>
      <stop offset="1"/>
    </linearGradient>
  </defs>
</svg>
