<svg width="164" height="32" viewBox="0 0 164 32" fill="none" xmlns="http://www.w3.org/2000/svg">
  <path d="M15.6317 0C7.0183 0 0 7.0183 0 15.6317C0 24.245 7.0183 31.2633 15.6317 31.2633C24.245 31.2633 31.2633 24.245 31.2633 15.6317C31.2633 7.0183 24.2906 0 15.6317 0ZM15.6317 22.9234C11.6212 22.9234 8.3855 19.6877 8.3855 15.6772C8.3855 11.6668 11.6212 8.43108 15.6317 8.43108C19.6421 8.43108 22.8778 11.6668 22.8778 15.6772C22.8778 19.6877 19.6421 22.9234 15.6317 22.9234Z" fill="url(#paint0_linear)"/>
  <path d="M19.5054 26.5237C14.9481 26.5237 11.3022 23.288 9.47926 19.551C8.88681 18.5939 8.47665 17.5457 8.3855 16.3608C8.3855 16.3608 8.3855 16.3608 8.33993 16.3608C8.33993 16.3608 8.33993 16.3608 8.3855 16.3608C8.33993 16.133 8.33993 15.9051 8.33993 15.6317C8.33993 11.6212 11.6212 8.33991 15.6317 8.33991C18.1382 8.33991 20.3713 9.61597 21.6474 11.53C19.8244 7.97532 16.3608 4.87633 11.9858 4.83076C7.06387 4.73961 2.7344 7.01828 0.911468 10.6642C0.638027 11.0743 0.501307 11.6212 0.41016 12.1225C0.364587 12.2592 0.319014 12.3959 0.319014 12.5327C0.182294 12.9884 0.13672 13.4897 0.0911468 13.991C0.0455734 14.5379 0 15.0848 0 15.6317C0 24.2906 7.0183 31.2633 15.6317 31.2633C23.288 31.2633 29.6227 25.7945 30.9899 18.5484C29.8506 23.1057 25.1565 26.5237 19.5054 26.5237Z" fill="url(#paint1_linear)"/>
  <path d="M46 13.746C46 8.40294 49.0251 5.14209 53.9361 5.14209C58.847 5.14209 61.8328 8.40294 61.8328 13.746V16.2604C61.8328 21.6035 58.8077 24.7465 53.8968 24.7465C48.9858 24.7465 46 21.6035 46 16.2604V13.746ZM49.3787 16.2604C49.3787 20.0713 51.3038 21.8785 53.9361 21.8785C56.529 21.8785 58.4541 20.0713 58.4541 16.2604V13.7067C58.4541 9.89587 56.529 7.9315 53.9361 7.9315C51.3038 7.9315 49.3787 9.89587 49.3787 13.7067V16.2604Z" fill="white"/>
  <path d="M76.8015 24.3536H65.251V5.49561H68.5904V21.4856H76.8015V24.3536Z" fill="white"/>
  <path d="M81.3192 24.3536V16.9283L75.0332 5.53491H78.7655L82.9693 13.6281H83.0871L87.3302 5.53491H90.9839L84.6586 16.889V24.3929H81.3192V24.3536Z" fill="white"/>
  <path d="M92.9482 24.3536V5.49561H96.327L101.945 18.3819H102.024L107.642 5.49561H110.981V24.3536H107.956V11.5066H107.838L103.084 22.1928H100.766L96.0127 11.5066H95.8948V24.3536H92.9482Z" fill="white"/>
  <path d="M122.571 5.49561C126.5 5.49561 128.818 8.12786 128.818 11.6637C128.818 15.2389 126.461 17.7926 122.532 17.7926H118.564V24.3536H115.225V5.49561H122.571ZM118.564 15.121H121C123.789 15.121 125.439 14.4138 125.439 11.6637C125.439 9.46363 124.182 8.20644 122.021 8.20644H118.564V15.121Z" fill="white"/>
  <path d="M134.711 17.5568C134.711 20.2677 136.321 21.8392 138.836 21.8392C141.35 21.8392 142.961 20.2284 142.961 17.5568V5.49561H146.3V17.8319C146.3 21.9963 143.314 24.7464 138.836 24.7464C134.357 24.7464 131.371 21.957 131.371 17.7926V5.49561H134.711V17.5568Z" fill="white"/>
  <path d="M152.234 19.0891C152.391 20.6606 153.766 22.0357 156.359 22.0357C158.755 22.0357 160.13 20.9356 160.13 19.207C160.13 17.7926 159.148 17.0855 157.184 16.614L154.159 15.8676C151.683 15.3175 149.483 13.8246 149.483 10.7602C149.483 7.14575 152.666 5.14209 156.359 5.14209C160.17 5.14209 163.155 7.22432 163.195 10.6816H160.012C159.895 9.14941 158.677 7.85292 156.319 7.85292C154.237 7.85292 152.823 8.83511 152.823 10.5245C152.823 11.7424 153.687 12.5674 155.416 12.9603L158.441 13.7067C161.27 14.3746 163.47 15.7104 163.47 18.9713C163.47 22.6643 160.484 24.7858 156.123 24.7858C150.819 24.7858 149.051 21.7214 148.973 19.1284H152.234V19.0891Z" fill="white"/>
  <defs>
    <linearGradient id="paint0_linear" x1="15.6317" y1="0" x2="15.6317" y2="31.2633" gradientUnits="userSpaceOnUse">
      <stop stop-color="#E5E5E5"/>
      <stop offset="1" stop-color="#8599A9"/>
    </linearGradient>
    <linearGradient id="paint1_linear" x1="15.495" y1="4.82812" x2="15.495" y2="31.2633" gradientUnits="userSpaceOnUse">
      <stop stop-color="#8599A9"/>
      <stop offset="1" stop-color="#E5E5E5"/>
    </linearGradient>
  </defs>
</svg>
