<svg width="447" height="369" viewBox="0 0 447 369" fill="none" xmlns="http://www.w3.org/2000/svg">
  <path fill-rule="evenodd" clip-rule="evenodd" d="M112.268 361.581H103.301C102.571 355.541 97.4178 350.994 91.299 350.992L91.2992 345.384C91.2992 338.544 85.7234 333 78.8455 333C71.9675 333 66.3917 338.544 66.3917 345.384V349.046C64.6486 345.497 60.6705 343.617 56.8024 344.513C52.9342 345.41 50.2022 348.845 50.2167 352.795L50.2169 361.58H39.7304C37.6699 361.581 36 363.242 36 365.291C36 367.337 37.669 368.998 39.7289 369H112.268C114.329 369 115.999 367.34 116 365.291H116C115.999 363.241 114.328 361.581 112.267 361.581L112.268 361.581Z" fill="white" fill-opacity="0.8"/>
  <circle cx="234.634" cy="169.044" r="4.304" fill="white" fill-opacity="0.2"/>
  <path fill-rule="evenodd" clip-rule="evenodd" d="M234.634 174.088C234.233 174.088 233.907 173.763 233.906 173.361V164.727C233.907 164.325 234.233 164 234.634 164C235.036 164.001 235.361 164.326 235.361 164.727V173.36C235.361 173.762 235.036 174.087 234.634 174.088Z" fill="white" fill-opacity="0.298039"/>
  <path fill-rule="evenodd" clip-rule="evenodd" d="M239.678 169.043C239.678 169.236 239.601 169.421 239.465 169.558C239.328 169.694 239.143 169.771 238.95 169.771H230.317C230.124 169.771 229.939 169.694 229.802 169.558C229.666 169.421 229.59 169.236 229.59 169.043C229.59 168.85 229.667 168.665 229.803 168.529C229.939 168.392 230.124 168.316 230.317 168.316H238.95C239.143 168.316 239.328 168.392 239.465 168.528C239.601 168.665 239.678 168.85 239.678 169.043Z" fill="white" fill-opacity="0.298039"/>
  <path fill-rule="evenodd" clip-rule="evenodd" d="M237.688 169.043C237.688 169.236 237.611 169.421 237.475 169.558C237.338 169.694 237.153 169.771 236.96 169.771H232.309C232.116 169.771 231.931 169.694 231.794 169.558C231.658 169.421 231.581 169.236 231.581 169.043C231.582 168.641 231.907 168.316 232.309 168.316H236.96C237.362 168.316 237.688 168.641 237.688 169.043Z" fill="white"/>
  <path fill-rule="evenodd" clip-rule="evenodd" d="M234.634 172.097C234.441 172.097 234.256 172.02 234.12 171.884C233.983 171.747 233.906 171.562 233.906 171.369V166.718C233.906 166.525 233.983 166.34 234.12 166.203C234.256 166.067 234.441 165.99 234.634 165.99C235.036 165.991 235.361 166.316 235.361 166.718V171.369C235.361 171.771 235.036 172.096 234.634 172.097V172.097Z" fill="white"/>
  <circle cx="39.0491" cy="199.896" r="4.304" fill="white" fill-opacity="0.2"/>
  <path fill-rule="evenodd" clip-rule="evenodd" d="M39.0483 204.94C38.6468 204.94 38.3213 204.615 38.3213 204.213V195.579C38.3213 195.178 38.6468 194.852 39.0483 194.852C39.45 194.852 39.7757 195.177 39.7763 195.579V204.212C39.7763 204.405 39.6996 204.59 39.563 204.727C39.4265 204.863 39.2413 204.94 39.0483 204.94Z" fill="white" fill-opacity="0.298039"/>
  <path fill-rule="evenodd" clip-rule="evenodd" d="M44.093 199.895C44.093 200.088 44.0163 200.273 43.8798 200.41C43.7432 200.546 43.558 200.623 43.365 200.623H34.728C34.535 200.623 34.3498 200.546 34.2133 200.41C34.0767 200.273 34 200.088 34 199.895C34.0005 199.493 34.3264 199.168 34.728 199.168L43.36 199.168C43.5538 199.167 43.7401 199.243 43.8776 199.379C44.0152 199.516 44.0927 199.701 44.093 199.895V199.895Z" fill="white" fill-opacity="0.298039"/>
  <path fill-rule="evenodd" clip-rule="evenodd" d="M42.1021 199.895C42.1021 200.297 41.7768 200.622 41.3751 200.623H36.7241C36.5311 200.623 36.3459 200.546 36.2094 200.41C36.0728 200.273 35.9961 200.088 35.9961 199.895C35.9966 199.493 36.3224 199.168 36.7241 199.168L41.3751 199.168C41.7766 199.168 42.1021 199.493 42.1021 199.895L42.1021 199.895Z" fill="white"/>
  <path fill-rule="evenodd" clip-rule="evenodd" d="M39.0483 202.949C38.6467 202.948 38.3213 202.623 38.3213 202.221L38.3214 197.57C38.3213 197.168 38.6466 196.843 39.0483 196.842H39.0483C39.2414 196.842 39.4266 196.919 39.5631 197.055C39.6996 197.192 39.7764 197.377 39.7764 197.57V202.221C39.7764 202.414 39.6996 202.599 39.5631 202.736C39.4266 202.872 39.2414 202.949 39.0483 202.949Z" fill="white"/>
  <path fill-rule="evenodd" clip-rule="evenodd" d="M409.298 42.5249C409.298 42.5249 397.986 47.3799 387.564 46.5389C387.272 46.5136 387.05 46.2652 387.057 45.9719C387.071 45.3889 387.082 44.3669 387.044 43.1719C386.951 40.3749 409.298 42.5249 409.298 42.5249Z" fill="#A9CBD3" fill-opacity="0.5"/>
  <path fill-rule="evenodd" clip-rule="evenodd" d="M387.043 43.1698C387.067 43.9108 387.072 44.5838 387.069 45.1278C397.584 46.3708 409.298 42.5278 409.298 42.5278C409.298 42.5278 386.951 40.3748 387.043 43.1698Z" fill="#8CB8BF"/>
  <path fill-rule="evenodd" clip-rule="evenodd" d="M386.032 31.5649C386.032 31.5649 387.485 36.6649 386.785 39.6719C386.085 42.6789 404.569 44.0669 409.297 42.5239C404.838 40.4194 400.541 37.9864 396.441 35.2449C393.363 33.1108 389.768 31.8401 386.032 31.5649H386.032Z" fill="#CCE4EA"/>
  <path opacity="0.5" fill-rule="evenodd" clip-rule="evenodd" d="M386.784 39.672C386.084 42.679 404.568 44.067 409.296 42.524C400.976 42.105 388.155 36.175 388.155 36.175C387.661 34.5484 386.946 32.9971 386.031 31.564C386.031 31.564 387.484 36.664 386.784 39.672Z" fill="#A9CBD3" fill-opacity="0.5"/>
  <path fill-rule="evenodd" clip-rule="evenodd" d="M381.247 34.3498C380.781 34.5688 378.601 35.5498 376.247 36.4048C372.711 37.6838 369.422 37.8948 370.086 38.7578C370.679 39.5278 377.81 43.5738 386.737 44.4628C395.664 45.3518 406.073 43.6628 409.296 42.5238C404.168 42.041 399.096 41.0791 394.148 39.6508C386.347 37.3428 382.585 33.7208 381.247 34.3498Z" fill="#F7FCFE" fill-opacity="0.5"/>
  <path fill-rule="evenodd" clip-rule="evenodd" d="M409.297 42.5279C405.808 40.3745 402.602 37.7935 399.753 34.8449C394.645 29.2269 392.515 24.4449 392.03 24.0589C391.545 23.6729 390.346 25.2189 388.435 27.6999C387.528 28.9198 386.725 30.214 386.035 31.5689C386.035 31.5689 400.998 41.9179 409.297 42.5279Z" fill="#F7FCFE" fill-opacity="0.5"/>
  <path fill-rule="evenodd" clip-rule="evenodd" d="M379.711 35.8518C376.065 37.8668 371.124 38.3228 372.571 39.3728C374.018 40.4228 387.004 45.8818 402.781 43.1588C402.781 43.1588 388.424 43.3908 381.498 41.3468C373.359 38.9468 375.97 38.3078 377.01 37.7588C378.011 37.2788 378.923 36.6342 379.711 35.8518H379.711Z" fill="white" fill-opacity="0.5"/>
  <path fill-rule="evenodd" clip-rule="evenodd" d="M406.691 41.651C406.691 41.651 394.054 36.339 387.229 31.451C388.089 29.3755 389.333 27.4807 390.895 25.866C390.059 27.1395 389.389 28.5138 388.901 29.956C388.751 30.646 389.706 31.756 391.1 32.822C394.406 35.341 406.691 41.651 406.691 41.651Z" fill="white" fill-opacity="0.5"/>
  <path fill-rule="evenodd" clip-rule="evenodd" d="M11.9268 181.322C11.9265 180.853 12.2089 180.43 12.6423 180.25C13.0757 180.071 13.5746 180.17 13.9066 180.501C14.2385 180.833 14.338 181.332 14.1586 181.765C13.9793 182.199 13.5565 182.482 13.0873 182.482C12.7795 182.482 12.4843 182.36 12.2667 182.142C12.049 181.925 11.9268 181.63 11.9268 181.322Z" fill="#FFEDB2"/>
  <path fill-rule="evenodd" clip-rule="evenodd" d="M59.126 225.755C59.1265 225.114 59.6461 224.596 60.2866 224.596C60.9271 224.596 61.446 225.116 61.4459 225.756C61.4457 226.397 60.9264 226.916 60.2859 226.916C59.9781 226.916 59.683 226.794 59.4653 226.576C59.2478 226.358 59.1257 226.063 59.126 225.755V225.755Z" fill="#FFEDB2"/>
  <path fill-rule="evenodd" clip-rule="evenodd" d="M253.492 216.809C253.492 216.168 254.011 215.649 254.652 215.649C255.293 215.649 255.812 216.168 255.812 216.809C255.812 217.45 255.293 217.969 254.652 217.969C254.011 217.969 253.492 217.45 253.492 216.809Z" fill="#FFEDB2"/>
  <path fill-rule="evenodd" clip-rule="evenodd" d="M176.037 182.604C176.037 181.964 176.556 181.444 177.197 181.444C177.837 181.444 178.357 181.963 178.357 182.604C178.357 183.244 177.838 183.764 177.198 183.764C176.89 183.764 176.595 183.642 176.377 183.425C176.159 183.207 176.037 182.912 176.037 182.604Z" fill="#FFEDB2"/>
  <path fill-rule="evenodd" clip-rule="evenodd" d="M171.188 212.391C171.187 211.921 171.47 211.498 171.903 211.318C172.337 211.138 172.837 211.237 173.169 211.569C173.501 211.901 173.601 212.4 173.421 212.834C173.242 213.268 172.818 213.551 172.349 213.551C171.708 213.551 171.188 213.032 171.188 212.391Z" fill="#FFEDB2"/>
  <path fill-rule="evenodd" clip-rule="evenodd" d="M240.933 180.161C240.932 179.52 241.452 179 242.094 179C242.735 179 243.255 179.52 243.255 180.161C243.255 180.802 242.735 181.322 242.094 181.322C241.452 181.322 240.933 180.802 240.933 180.161Z" fill="#FFEDB2"/>
  <path fill-rule="evenodd" clip-rule="evenodd" d="M110.759 190.349C110.759 189.708 111.279 189.188 111.92 189.188C112.561 189.188 113.081 189.708 113.081 190.349C113.081 190.99 112.561 191.51 111.92 191.51C111.612 191.51 111.316 191.388 111.099 191.17C110.881 190.952 110.759 190.657 110.759 190.349Z" fill="#FFEDB2"/>
  <path fill-rule="evenodd" clip-rule="evenodd" d="M0 204.311C0 203.842 0.282593 203.419 0.716065 203.239C1.14954 203.06 1.6485 203.159 1.98022 203.491C2.31195 203.822 2.41119 204.321 2.23169 204.755C2.05212 205.188 1.62915 205.471 1.15997 205.471C0.519287 205.471 0 204.952 0 204.311Z" fill="#FFEDB2"/>
  <circle cx="441.634" cy="5.04399" r="4.304" fill="white" fill-opacity="0.2"/>
  <path fill-rule="evenodd" clip-rule="evenodd" d="M441.634 10.088C441.233 10.088 440.907 9.76269 440.906 9.361V0.726997C440.907 0.325348 441.233 0 441.634 0C442.036 0.000526428 442.361 0.325699 442.361 0.727005V9.36C442.361 9.7617 442.036 10.0875 441.634 10.088Z" fill="white" fill-opacity="0.298039"/>
  <path fill-rule="evenodd" clip-rule="evenodd" d="M446.678 5.04292C446.678 5.23601 446.601 5.42118 446.465 5.55771C446.328 5.69423 446.143 5.77094 445.95 5.77092H437.317C437.124 5.77094 436.939 5.69421 436.802 5.55765C436.666 5.4211 436.59 5.23592 436.59 5.04292C436.59 4.8501 436.667 4.66518 436.803 4.52884C436.939 4.39249 437.124 4.3159 437.317 4.31592H445.95C446.143 4.31564 446.328 4.39212 446.465 4.52849C446.601 4.66486 446.678 4.84993 446.678 5.04292Z" fill="white" fill-opacity="0.298039"/>
  <path fill-rule="evenodd" clip-rule="evenodd" d="M444.688 5.04292C444.688 5.23601 444.611 5.42118 444.475 5.55771C444.338 5.69423 444.153 5.77094 443.96 5.77092H439.309C439.116 5.77094 438.931 5.69423 438.794 5.55771C438.658 5.42117 438.581 5.23601 438.581 5.04292C438.582 4.64127 438.907 4.31592 439.309 4.31592H443.96C444.362 4.3159 444.688 4.64124 444.688 5.04292Z" fill="white"/>
  <path fill-rule="evenodd" clip-rule="evenodd" d="M441.634 8.09699C441.441 8.097 441.256 8.02031 441.12 7.88377C440.983 7.74725 440.906 7.56207 440.906 7.369V2.71799C440.906 2.5249 440.983 2.33973 441.12 2.2032C441.256 2.06668 441.441 1.98997 441.634 1.98999C442.036 1.99051 442.361 2.3163 442.361 2.71799V7.36899C442.361 7.77069 442.036 8.09647 441.634 8.097V8.09699Z" fill="white"/>
  <circle cx="246.049" cy="35.896" r="4.304" fill="white" fill-opacity="0.2"/>
  <path fill-rule="evenodd" clip-rule="evenodd" d="M246.048 40.94C245.647 40.94 245.321 40.6146 245.321 40.213V31.579C245.321 31.1775 245.647 30.8521 246.048 30.8521C246.45 30.852 246.776 31.1774 246.776 31.579V40.2121C246.776 40.4051 246.7 40.5903 246.563 40.7268C246.427 40.8634 246.241 40.9401 246.048 40.94Z" fill="white" fill-opacity="0.298039"/>
  <path fill-rule="evenodd" clip-rule="evenodd" d="M251.093 35.895C251.093 36.0881 251.016 36.2732 250.88 36.4098C250.743 36.5463 250.558 36.623 250.365 36.623H241.728C241.535 36.623 241.35 36.5463 241.213 36.4098C241.077 36.2732 241 36.0881 241 35.895C241.001 35.4933 241.326 35.168 241.728 35.168L250.36 35.168C250.554 35.1667 250.74 35.2426 250.878 35.3791C251.015 35.5155 251.093 35.7012 251.093 35.895V35.895Z" fill="white" fill-opacity="0.298039"/>
  <path fill-rule="evenodd" clip-rule="evenodd" d="M249.102 35.895C249.102 36.2966 248.777 36.6224 248.375 36.623H243.724C243.531 36.623 243.346 36.5463 243.209 36.4098C243.073 36.2732 242.996 36.0881 242.996 35.895C242.997 35.4933 243.322 35.168 243.724 35.168L248.375 35.168C248.777 35.168 249.102 35.4935 249.102 35.895L249.102 35.895Z" fill="white"/>
  <path fill-rule="evenodd" clip-rule="evenodd" d="M246.048 38.949C245.647 38.9485 245.321 38.6227 245.321 38.221L245.321 33.57C245.321 33.1684 245.647 32.8426 246.048 32.842H246.048C246.241 32.842 246.427 32.9187 246.563 33.0553C246.7 33.1918 246.776 33.377 246.776 33.57V38.221C246.776 38.4141 246.7 38.5993 246.563 38.7358C246.427 38.8723 246.241 38.949 246.048 38.949Z" fill="white"/>
  <path fill-rule="evenodd" clip-rule="evenodd" d="M205.042 251.992C205.042 251.992 194.667 256.445 185.108 255.673C184.84 255.651 184.636 255.422 184.643 255.153C184.656 254.618 184.666 253.681 184.631 252.583C184.546 250.02 205.042 251.992 205.042 251.992Z" fill="#A9CBD3" fill-opacity="0.6"/>
  <path fill-rule="evenodd" clip-rule="evenodd" d="M184.631 252.584C184.653 253.264 184.657 253.884 184.655 254.384C194.298 255.524 205.043 251.997 205.043 251.997C205.043 251.997 184.546 250.02 184.631 252.584Z" fill="#8CB8BF"/>
  <path fill-rule="evenodd" clip-rule="evenodd" d="M183.704 241.941C183.704 241.941 185.036 246.618 184.395 249.377C183.754 252.136 200.706 253.408 205.043 251.993C200.952 250.063 197.011 247.832 193.251 245.317C190.427 243.359 187.131 242.194 183.704 241.941V241.941Z" fill="#CCE4EA"/>
  <path opacity="0.5" fill-rule="evenodd" clip-rule="evenodd" d="M184.395 249.377C183.754 252.135 200.706 253.408 205.043 251.993C197.412 251.609 185.653 246.17 185.653 246.17C185.199 244.678 184.544 243.256 183.705 241.941C183.705 241.941 185.036 246.62 184.395 249.377Z" fill="#A9CBD3" fill-opacity="0.6"/>
  <path fill-rule="evenodd" clip-rule="evenodd" d="M179.315 244.494C178.887 244.694 176.889 245.594 174.73 246.379C171.487 247.552 168.47 247.746 169.079 248.537C169.622 249.243 176.163 252.954 184.351 253.77C192.539 254.586 202.085 253.036 205.042 251.992C200.339 251.55 195.687 250.667 191.148 249.357C183.989 247.239 180.547 243.918 179.315 244.494Z" fill="#F7FCFE" fill-opacity="0.6"/>
  <path fill-rule="evenodd" clip-rule="evenodd" d="M205.042 251.992C201.842 250.018 198.901 247.65 196.288 244.946C191.603 239.794 189.65 235.404 189.205 235.053C188.76 234.702 187.661 236.117 185.905 238.392C185.073 239.511 184.337 240.698 183.705 241.941C183.705 241.941 197.431 251.436 205.042 251.992Z" fill="#F7FCFE" fill-opacity="0.6"/>
  <path fill-rule="evenodd" clip-rule="evenodd" d="M177.906 245.873C174.562 247.721 170.03 248.14 171.357 249.103C172.684 250.066 184.595 255.073 199.065 252.576C199.065 252.576 185.897 252.789 179.544 250.914C172.079 248.714 174.474 248.127 175.428 247.623C176.346 247.183 177.184 246.591 177.906 245.873Z" fill="white" fill-opacity="0.6"/>
  <path fill-rule="evenodd" clip-rule="evenodd" d="M202.652 251.191C202.652 251.191 191.062 246.319 184.803 241.839C185.591 239.936 186.731 238.198 188.164 236.716C187.398 237.884 186.784 239.145 186.336 240.467C186.199 241.1 187.074 242.122 188.354 243.096C191.384 245.404 202.652 251.191 202.652 251.191Z" fill="white" fill-opacity="0.6"/>
  <path fill-rule="evenodd" clip-rule="evenodd" d="M127.134 208.291H122.651C122.285 205.27 119.709 202.997 116.65 202.996L116.65 200.192C116.65 196.772 113.862 194 110.423 194C106.984 194 104.196 196.772 104.196 200.192V202.023C103.324 200.249 101.335 199.308 99.4012 199.757C97.4671 200.205 96.1011 201.923 96.1083 203.897L96.1084 208.29H90.8652C89.835 208.29 89 209.121 89 210.145C89 211.169 89.8345 211.999 90.8644 212H127.134C128.164 212 129 211.17 129 210.145H129C128.999 209.121 128.164 208.29 127.134 208.291L127.134 208.291Z" fill="white" fill-opacity="0.5"/>
</svg>
