<svg width="337.8150634765625px" height="69.21501464843749px" xmlns="http://www.w3.org/2000/svg" viewBox="81.09246826171875 40.392492675781256 337.8150634765625 69.21501464843749" style="background: rgba(0, 0, 0, 0);" preserveAspectRatio="xMidYMid"><defs><filter id="editing-extrude-glow"><feFlood flood-color="#333333" result="flood-1"></feFlood><feMorphology operator="erode" radius="1" in="SourceAlpha" result="erode"></feMorphology><feComposite operator="in" in="flood-1" in2="erode" result="comp1"></feComposite><feConvolveMatrix order="3,3" divisor="1" in="comp1" result="convolve" kernelMatrix="0 0 0 1 1 1 0 0 0"></feConvolveMatrix><feOffset dx="-3" dy="0" in="convolve" result="extrude"></feOffset><feComposite operator="in" in="flood-1" in2="extrude" result="comp-extrude"></feComposite><feFlood flood-color="#d2d2d2" result="flood-2"></feFlood><feComposite operator="in" in="flood-2" in2="SourceAlpha" result="comp2"></feComposite><feMorphology operator="dilate" radius="1" in="comp2" result="dilate"></feMorphology><feOffset dx="-4.5" dy="0" in="dilate" result="offset"></feOffset><feGaussianBlur in="offset" stdDeviation="5.8" result="blur"></feGaussianBlur><feComponentTransfer in="blur" result="shadow"><feFuncA type="linear" slope="0.8" intercept="-0.2"></feFuncA></feComponentTransfer><feMerge><feMergeNode in="shadow"></feMergeNode><feMergeNode in="comp-extrude"></feMergeNode><feMergeNode in="SourceGraphic"></feMergeNode></feMerge></filter></defs><g filter="url(#editing-extrude-glow)"><g transform="translate(132.50000476837158, 85.30999946594238)"><path d="M12.14-10.61L12.14-10.61L12.14-10.61Q12.77-10.53 13.48-10.20L13.48-10.20L13.48-10.20Q14.19-9.87 14.81-9.27L14.81-9.27L14.81-9.27Q15.42-8.67 15.83-7.81L15.83-7.81L15.83-7.81Q16.24-6.95 16.24-5.82L16.24-5.82L16.24-5.82Q16.24-4.46 15.83-3.47L15.83-3.47L15.83-3.47Q15.42-2.49 14.81-1.85L14.81-1.85L14.81-1.85Q14.19-1.20 13.47-0.83L13.47-0.83L13.47-0.83Q12.74-0.46 12.07-0.27L12.07-0.27L12.07-0.27Q11.40-0.08 10.88-0.04L10.88-0.04L10.88-0.04Q10.36 0 10.20 0L10.20 0L2.63 0L2.63-20.15L8.42-20.15L8.42-20.15Q9.71-20.15 10.91-19.85L10.91-19.85L10.91-19.85Q12.11-19.55 13.04-18.89L13.04-18.89L13.04-18.89Q13.97-18.24 14.52-17.19L14.52-17.19L14.52-17.19Q15.07-16.13 15.07-14.68L15.07-14.68L15.07-14.68Q15.07-13.84 14.79-13.14L14.79-13.14L14.79-13.14Q14.52-12.44 14.11-11.92L14.11-11.92L14.11-11.92Q13.70-11.40 13.17-11.06L13.17-11.06L13.17-11.06Q12.63-10.72 12.14-10.61ZM5.91-2.41L10.01-2.41L10.01-2.41Q11.46-2.41 12.28-3.34L12.28-3.34L12.28-3.34Q13.10-4.27 13.10-5.82L13.10-5.82L13.10-5.82Q13.10-7.30 12.25-8.31L12.25-8.31L12.25-8.31Q11.40-9.32 9.76-9.32L9.76-9.32L5.91-9.32L5.91-2.41ZM6.04-11.54L8.34-11.54L8.34-11.54Q8.94-11.54 9.57-11.57L9.57-11.57L9.57-11.57Q10.20-11.59 10.75-11.87L10.75-11.87L10.75-11.87Q11.29-12.14 11.63-12.80L11.63-12.80L11.63-12.80Q11.98-13.45 11.98-14.68L11.98-14.68L11.98-14.68Q11.98-15.18 11.84-15.71L11.84-15.71L11.84-15.71Q11.70-16.24 11.29-16.68L11.29-16.68L11.29-16.68Q10.88-17.12 10.12-17.39L10.12-17.39L10.12-17.39Q9.35-17.66 8.09-17.66L8.09-17.66L5.91-17.66L5.91-11.54L6.04-11.54ZM23.49 0L20.07 0L27.13-20.13L30.38-20.13L37.38 0L33.99 0L32.54-4.18L24.96-4.18L23.49 0ZM28.77-15.09L25.73-6.40L31.75-6.40L28.77-15.09ZM52.86-20.15L56.19-20.15L56.19 0L52.86 0L44.95-13.89L44.95 0L41.62 0L41.62-20.15L44.95-20.15L52.86-6.26L52.86-20.15ZM70.57-20.15L74.32-20.15L67.87-9.79L74.87 0L71.07 0L64.56-9.57L64.56 0L61.22 0L61.22-20.15L64.56-20.15L64.56-10.06L70.57-20.15ZM79.30-9.38L87.99-9.38L87.99-6.62L79.30-6.62L79.30-9.38ZM100.84-10.39L107.52-10.39L107.52-2.60L107.52-2.60Q106.89-1.80 106.11-1.30L106.11-1.30L106.11-1.30Q105.33-0.79 104.47-0.46L104.47-0.46L104.47-0.46Q103.61-0.14 102.69 0L102.69 0L102.69 0Q101.77 0.14 100.87 0.14L100.87 0.14L100.87 0.14Q99.07 0.14 97.55-0.52L97.55-0.52L97.55-0.52Q96.03-1.18 94.90-2.46L94.90-2.46L94.90-2.46Q93.76-3.75 93.12-5.69L93.12-5.69L93.12-5.69Q92.48-7.63 92.48-10.17L92.48-10.17L92.48-10.17Q92.48-12.71 93.12-14.64L93.12-14.64L93.12-14.64Q93.76-16.57 94.90-17.86L94.90-17.86L94.90-17.86Q96.03-19.14 97.56-19.81L97.56-19.81L97.56-19.81Q99.09-20.48 100.87-20.48L100.87-20.48L100.87-20.48Q102.51-20.48 103.93-19.93L103.93-19.93L103.93-19.93Q105.36-19.39 106.48-18.29L106.48-18.29L104.21-16.27L104.21-16.27Q103.55-17.06 102.70-17.42L102.70-17.42L102.70-17.42Q101.86-17.77 100.95-17.77L100.95-17.77L100.95-17.77Q99.94-17.77 99.03-17.39L99.03-17.39L99.03-17.39Q98.11-17.01 97.38-16.09L97.38-16.09L97.38-16.09Q96.66-15.18 96.25-13.73L96.25-13.73L96.25-13.73Q95.84-12.28 95.81-10.17L95.81-10.17L95.81-10.17Q95.84-8.12 96.24-6.62L96.24-6.62L96.24-6.62Q96.63-5.11 97.33-4.16L97.33-4.16L97.33-4.16Q98.03-3.20 98.92-2.73L98.92-2.73L98.92-2.73Q99.80-2.27 100.79-2.27L100.79-2.27L100.79-2.27Q101.09-2.27 101.60-2.31L101.60-2.31L101.60-2.31Q102.10-2.35 102.61-2.45L102.61-2.45L102.61-2.45Q103.11-2.54 103.58-2.71L103.58-2.71L103.58-2.71Q104.04-2.87 104.26-3.17L104.26-3.17L104.26-8.15L100.84-8.15L100.84-10.39ZM114.87 0L111.45 0L118.51-20.13L121.76-20.13L128.76 0L125.37 0L123.92-4.18L116.35-4.18L114.87 0ZM120.15-15.09L117.11-6.40L123.13-6.40L120.15-15.09ZM131.88-20.15L147.22-20.15L147.22-17.91L141.20-17.91L141.20 0L137.89 0L137.89-17.91L131.88-17.91L131.88-20.15ZM163.82-17.66L154.55-17.66L154.55-11.32L162.97-11.32L162.97-9.08L154.55-9.08L154.55-2.49L163.82-2.49L163.82 0L151.21 0L151.21-20.15L163.82-20.15L163.82-17.66ZM190.01-20.15L193.73-20.15L188.29 0.11L184.02 0.11L180.71-15.09L177.19 0.11L172.89 0.11L167.78-20.15L171.50-20.15L175.05-2.76L178.88-20.15L182.60-20.15L186.16-2.76L190.01-20.15ZM200.27 0L196.85 0L203.90-20.13L207.16-20.13L214.16 0L210.77 0L209.32-4.18L201.74-4.18L200.27 0ZM205.54-15.09L202.51-6.40L208.52-6.40L205.54-15.09ZM228.62-20.15L232.37-20.15L226.38-8.20L226.38 0L223.04 0L223.04-7.93L217.36-20.15L221.10-20.15L224.57-11.13L224.88-11.13L228.62-20.15Z" fill="#ffffff"></path></g></g><style>text {
  font-size: 64px;
  font-family: Arial Black;
  dominant-baseline: central;
  text-anchor: middle;
}</style></svg>