<svg width="280.01503906249997px" height="57.230029296874996px" xmlns="http://www.w3.org/2000/svg" viewBox="109.99248046875002 46.384985351562506 280.01503906249997 57.230029296874996" style="background: rgba(0, 0, 0, 0);" preserveAspectRatio="xMidYMid"><defs><filter id="editing-extrude-glow"><feFlood flood-color="#333333" result="flood-1"></feFlood><feMorphology operator="erode" radius="1" in="SourceAlpha" result="erode"></feMorphology><feComposite operator="in" in="flood-1" in2="erode" result="comp1"></feComposite><feConvolveMatrix order="0,0" divisor="1" in="comp1" result="convolve" kernelMatrix=""></feConvolveMatrix><feOffset dx="0" dy="0" in="convolve" result="extrude"></feOffset><feComposite operator="in" in="flood-1" in2="extrude" result="comp-extrude"></feComposite><feFlood flood-color="#a2a2a2" result="flood-2"></feFlood><feComposite operator="in" in="flood-2" in2="SourceAlpha" result="comp2"></feComposite><feMorphology operator="dilate" radius="1" in="comp2" result="dilate"></feMorphology><feOffset dx="0" dy="0" in="dilate" result="offset"></feOffset><feGaussianBlur in="offset" stdDeviation="5.8" result="blur"></feGaussianBlur><feComponentTransfer in="blur" result="shadow"><feFuncA type="linear" slope="0.8" intercept="-0.2"></feFuncA></feComponentTransfer><feMerge><feMergeNode in="shadow"></feMergeNode><feMergeNode in="comp-extrude"></feMergeNode><feMergeNode in="SourceGraphic"></feMergeNode></feMerge></filter></defs><g filter="url(#editing-extrude-glow)"><g transform="translate(154.50063037872314, 82.96500015258789)"><path d="M8.87 0L8.87 0L2.13 0L2.13-15.38L8.12-15.38L8.12-15.38Q9.68-15.38 10.81-15.00L10.81-15.00L10.81-15.00Q11.95-14.63 12.50-13.99L12.50-13.99L12.50-13.99Q13.55-12.80 13.55-11.31L13.55-11.31L13.55-11.31Q13.55-9.50 12.41-8.62L12.41-8.62L12.41-8.62Q11.99-8.32 11.84-8.24L11.84-8.24L11.84-8.24Q11.68-8.16 11.29-7.99L11.29-7.99L11.29-7.99Q12.72-7.68 13.56-6.70L13.56-6.70L13.56-6.70Q14.41-5.72 14.41-4.27L14.41-4.27L14.41-4.27Q14.41-2.66 13.31-1.43L13.31-1.43L13.31-1.43Q12.01 0 8.87 0ZM4.73-12.98L4.73-9.00L8.03-9.00L8.03-9.00Q10.85-9.00 10.85-10.91L10.85-10.91L10.85-10.91Q10.85-12.01 10.16-12.50L10.16-12.50L10.16-12.50Q9.48-12.98 8.05-12.98L8.05-12.98L4.73-12.98ZM4.73-6.60L4.73-2.40L8.80-2.40L8.80-2.40Q10.23-2.40 10.99-2.85L10.99-2.85L10.99-2.85Q11.75-3.30 11.75-4.55L11.75-4.55L11.75-4.55Q11.75-6.60 8.47-6.60L8.47-6.60L4.73-6.60ZM27.54-3.50L19.84-3.50L18.30 0L15.53 0L22.31-15.38L25.08-15.38L31.86 0L29.08 0L27.54-3.50ZM20.90-5.90L26.49-5.90L23.69-12.23L20.90-5.90ZM45.52-3.89L45.52-15.38L48.11-15.38L48.11 0L45.30 0L36.59-11.22L36.59 0L33.99 0L33.99-15.38L36.59-15.38L45.52-3.89ZM52.38 0L52.38-15.38L54.98-15.38L54.98-7.88L62.02-15.38L65.32-15.38L59.14-8.65L65.41 0L62.33 0L57.22-6.73L54.98-4.31L54.98 0L52.38 0ZM74.62-5.41L67.32-5.41L67.32-7.72L74.62-7.72L74.62-5.41ZM88.99-3.26L88.99-7.48L91.59-7.48L91.59-2.22L91.59-2.22Q89.41 0.18 85.36 0.18L85.36 0.18L85.36 0.18Q81.95 0.18 79.65-2.07L79.65-2.07L79.65-2.07Q77.35-4.31 77.35-7.74L77.35-7.74L77.35-7.74Q77.35-11.18 79.69-13.46L79.69-13.46L79.69-13.46Q82.04-15.75 85.36-15.75L85.36-15.75L85.36-15.75Q88.68-15.75 90.88-13.82L90.88-13.82L89.50-11.84L89.50-11.84Q88.59-12.61 87.68-12.90L87.68-12.90L87.68-12.90Q86.77-13.20 85.56-13.20L85.56-13.20L85.56-13.20Q83.23-13.20 81.64-11.69L81.64-11.69L81.64-11.69Q80.06-10.19 80.06-7.73L80.06-7.73L80.06-7.73Q80.06-5.28 81.60-3.79L81.60-3.79L81.60-3.79Q83.14-2.31 85.33-2.31L85.33-2.31L85.33-2.31Q87.52-2.31 88.99-3.26L88.99-3.26ZM104.87-3.50L97.17-3.50L95.63 0L92.86 0L99.64-15.38L102.41-15.38L109.19 0L106.41 0L104.87-3.50ZM98.23-5.90L103.82-5.90L101.02-12.23L98.23-5.90ZM121.79-13.00L117.13-13.00L117.13 0L114.53 0L114.53-13.00L109.87-13.00L109.87-15.38L121.79-15.38L121.79-13.00ZM124.61-15.38L135.41-15.38L135.41-12.94L127.20-12.94L127.20-8.87L134.57-8.87L134.57-6.56L127.20-6.56L127.20-2.44L135.67-2.44L135.67 0L124.61 0L124.61-15.38ZM139.92-15.38L143.79-4.31L147.22-15.38L149.56-15.38L152.99-4.31L156.86-15.38L159.65-15.38L154.29 0L151.71 0L148.48-10.54L148.30-10.54L145.07 0L142.49 0L137.13-15.38L139.92-15.38ZM171.93-3.50L164.23-3.50L162.69 0L159.92 0L166.69-15.38L169.47-15.38L176.24 0L173.47 0L171.93-3.50ZM165.29-5.90L170.87-5.90L168.08-12.23L165.29-5.90ZM184.43-6.07L184.43 0L181.79 0L181.79-6.07L176.07-15.38L178.90-15.38L183.11-8.38L187.31-15.38L190.15-15.38L184.43-6.07Z" fill="#3a4160"></path></g></g><style>text {
  font-size: 64px;
  font-family: Arial Black;
  dominant-baseline: central;
  text-anchor: middle;
}</style></svg>