<svg width="25" height="25" viewBox="0 0 25 25" fill="none" xmlns="http://www.w3.org/2000/svg">
  <g clip-path="url(#clip0)">
    <path d="M9.33105 21.831C9.33105 23.5784 10.7526 25 12.5 25C14.2475 25 15.669 23.5784 15.669 21.831H9.33105Z" fill="white"/>
    <path d="M22.0071 18.3099V11.6197C22.0071 6.77495 18.3643 2.76528 13.6738 2.18516C13.8218 1.96226 13.9085 1.69546 13.9085 1.40845C13.9085 0.631836 13.2767 0 12.5 0C11.7234 0 11.0916 0.631836 11.0916 1.40845C11.0916 1.69541 11.1783 1.9623 11.3263 2.18516C6.63584 2.76528 2.99302 6.77495 2.99302 11.6197V18.3099H1.23242V20.4226H23.7676V18.3099H22.0071ZM19.8944 18.3099H5.10566V11.6197C5.10566 7.54248 8.42275 4.22534 12.5 4.22534C16.5773 4.22534 19.8944 7.54243 19.8944 11.6197V18.3099Z" fill="white"/>
    <circle cx="19.5" cy="4.5" r="4.25" fill="#FF8D07" stroke="#0271BA" stroke-width="2.5"/>
  </g>
  <defs>
    <clipPath id="clip0">
      <rect width="25" height="25" fill="white"/>
    </clipPath>
  </defs>
</svg>
