<svg width="48" height="48" viewBox="0 0 48 48" fill="none" xmlns="http://www.w3.org/2000/svg">
  <circle cx="24" cy="24" r="24" fill="#0171BB"/>
  <path d="M34.77 21.7301L29.2699 16.23C28.963 15.9232 28.4655 15.9233 28.1587 16.2302C28.0114 16.3776 27.9287 16.5773 27.9287 16.7856V19.1428H22.4285C21.9946 19.1428 21.6428 19.4946 21.6428 19.9285C21.6428 20.3625 21.9946 20.7143 22.4285 20.7143H28.7144C29.1484 20.7143 29.5001 20.3625 29.5001 19.9285V18.6823L33.1035 22.2856L29.5001 25.889V24.6428C29.5001 24.2089 29.1484 23.8571 28.7144 23.8571H20.0714V21.4999C20.0713 21.0659 19.7194 20.7143 19.2855 20.7144C19.0772 20.7144 18.8774 20.7971 18.7301 20.9444L13.2301 26.4445C12.9233 26.7514 12.9233 27.2487 13.2301 27.5555L18.7302 33.0556C18.8775 33.203 19.0773 33.2858 19.2857 33.2859C19.3889 33.2862 19.4913 33.2659 19.5866 33.2261C19.8801 33.1044 20.0715 32.8179 20.0714 32.5001V30.1429H25.5715C26.0054 30.1429 26.3572 29.7912 26.3572 29.3572C26.3572 28.9232 26.0054 28.5715 25.5715 28.5715H19.2857C18.8517 28.5715 18.4999 28.9232 18.4999 29.3572V30.6034L14.8966 27L18.4999 23.3967V24.6428C18.4999 25.0768 18.8517 25.4286 19.2857 25.4286H27.9287V27.7858C27.9287 28.2197 28.2806 28.5714 28.7145 28.5713C28.9228 28.5713 29.1226 28.4885 29.2699 28.3413L34.77 22.8412C35.0767 22.5343 35.0767 22.0369 34.77 21.7301Z" fill="white"/>
</svg>
