<svg width="24" height="24" viewBox="0 0 24 24" fill="none" xmlns="http://www.w3.org/2000/svg">
<path fill-rule="evenodd" clip-rule="evenodd" d="M3.59998 6.13314C3.59998 5.77952 3.74045 5.44038 3.9905 5.19033C4.24055 4.94028 4.57969 4.7998 4.93331 4.7998H20.9333C21.2869 4.7998 21.6261 4.94028 21.8761 5.19033C22.1262 5.44038 22.2666 5.77952 22.2666 6.13314C22.2666 6.48676 22.1262 6.8259 21.8761 7.07595C21.6261 7.326 21.2869 7.46647 20.9333 7.46647H4.93331C4.57969 7.46647 4.24055 7.326 3.9905 7.07595C3.74045 6.8259 3.59998 6.48676 3.59998 6.13314Z" fill="white"/>
<path fill-rule="evenodd" clip-rule="evenodd" d="M3.59998 12.7996C3.59998 12.446 3.74045 12.1069 3.9905 11.8568C4.24055 11.6068 4.57969 11.4663 4.93331 11.4663H20.9333C21.2869 11.4663 21.6261 11.6068 21.8761 11.8568C22.1262 12.1069 22.2666 12.446 22.2666 12.7996C22.2666 13.1533 22.1262 13.4924 21.8761 13.7425C21.6261 13.9925 21.2869 14.133 20.9333 14.133H4.93331C4.57969 14.133 4.24055 13.9925 3.9905 13.7425C3.74045 13.4924 3.59998 13.1533 3.59998 12.7996Z" fill="white"/>
<path fill-rule="evenodd" clip-rule="evenodd" d="M11.6 19.4666C11.6 19.113 11.7405 18.7739 11.9905 18.5238C12.2405 18.2738 12.5797 18.1333 12.9333 18.1333H20.9333C21.2869 18.1333 21.6261 18.2738 21.8761 18.5238C22.1262 18.7739 22.2666 19.113 22.2666 19.4666C22.2666 19.8203 22.1262 20.1594 21.8761 20.4094C21.6261 20.6595 21.2869 20.8 20.9333 20.8H12.9333C12.5797 20.8 12.2405 20.6595 11.9905 20.4094C11.7405 20.1594 11.6 19.8203 11.6 19.4666Z" fill="white"/>
</svg>
