<svg width="19" height="21" viewBox="0 0 19 21" fill="none" xmlns="http://www.w3.org/2000/svg">
<path d="M6.375 9.4585H4.29167V11.5418H6.375V9.4585ZM10.5417 9.4585H8.45833V11.5418H10.5417V9.4585ZM14.7083 9.4585H12.625V11.5418H14.7083V9.4585ZM16.7917 2.16683H15.75V0.0834961H13.6667V2.16683H5.33333V0.0834961H3.25V2.16683H2.20833C1.05208 2.16683 0.135417 3.10433 0.135417 4.25016L0.125 18.8335C0.125 19.9793 1.05208 20.9168 2.20833 20.9168H16.7917C17.9375 20.9168 18.875 19.9793 18.875 18.8335V4.25016C18.875 3.10433 17.9375 2.16683 16.7917 2.16683ZM16.7917 18.8335H2.20833V7.37516H16.7917V18.8335Z" fill="black"/>
</svg>
